<svg xmlns="http://www.w3.org/2000/svg" xmlns:xlink="http://www.w3.org/1999/xlink" width="2000" zoomAndPan="magnify" viewBox="110 280 1310 820" height="2000" preserveAspectRatio="xMidYMid meet" version="1.0"><defs><g/><clipPath id="fd2ab5b47f"><rect x="0" width="419" y="0" height="70"/></clipPath><clipPath id="a84a026910"><rect x="0" width="1203" y="0" height="696"/></clipPath><clipPath id="79c56e89e6"><path d="M 215.800781 613.050781 L 1410 613.050781 L 1410 741.222656 L 215.800781 741.222656 Z M 215.800781 613.050781 " clip-rule="nonzero"/></clipPath><clipPath id="bd6690adcc"><path d="M 0.800781 0.0507812 L 1168 0.0507812 L 1168 117.222656 L 0.800781 117.222656 Z M 0.800781 0.0507812 " clip-rule="nonzero"/></clipPath><clipPath id="f98028abf1"><rect x="0" width="1168" y="0" height="118"/></clipPath><clipPath id="290298a1b1"><rect x="0" width="1260" y="0" height="113"/></clipPath><clipPath id="agvCutoutBand" clipPathUnits="userSpaceOnUse"><rect x="0" y="0" width="1600" height="279.050781"/><rect x="0" y="407.222656" width="1600" height="1200"/></clipPath></defs><g transform="matrix(1, 0, 0, 1, 556, 953)"><g clip-path="url(#fd2ab5b47f)"><g fill="#000000" fill-opacity="1"><g transform="translate(1.073086, 52.016833)"><g><path d="M 31.890625 -12.546875 L 13.53125 -12.546875 L 8.453125 0 L 2.109375 0 L 22.96875 -49.703125 L 23.375 -49.703125 L 44.234375 0 L 36.84375 0 Z M 29.703125 -18.09375 L 22.90625 -35.515625 L 15.84375 -18.09375 Z M 29.703125 -18.09375 "/></g></g></g><g fill="#000000" fill-opacity="1"><g transform="translate(58.414736, 52.016833)"><g><path d="M 28.125 -24.75 C 30.851562 -23.695312 33.007812 -22.191406 34.59375 -20.234375 C 36.175781 -18.273438 36.96875 -16 36.96875 -13.40625 C 36.96875 -10.363281 36.226562 -7.84375 34.75 -5.84375 C 33.28125 -3.84375 31.34375 -2.367188 28.9375 -1.421875 C 26.539062 -0.472656 23.914062 0 21.0625 0 L 6.859375 0 L 6.859375 -47.734375 L 19.203125 -47.734375 C 24.085938 -47.734375 27.875 -46.726562 30.5625 -44.71875 C 33.25 -42.71875 34.59375 -39.71875 34.59375 -35.71875 C 34.59375 -33.207031 34.03125 -31.015625 32.90625 -29.140625 C 31.78125 -27.273438 30.1875 -25.8125 28.125 -24.75 Z M 13.265625 -26.875 L 20.53125 -26.875 C 23 -26.875 24.859375 -27.578125 26.109375 -28.984375 C 27.359375 -30.390625 27.984375 -32.191406 27.984375 -34.390625 C 27.984375 -36.816406 27.234375 -38.625 25.734375 -39.8125 C 24.242188 -41 22.15625 -41.59375 19.46875 -41.59375 L 13.265625 -41.59375 Z M 20.796875 -5.9375 C 23.566406 -5.9375 25.851562 -6.5625 27.65625 -7.8125 C 29.46875 -9.070312 30.375 -10.910156 30.375 -13.328125 C 30.375 -15.835938 29.390625 -17.6875 27.421875 -18.875 C 25.460938 -20.0625 23.097656 -20.65625 20.328125 -20.65625 L 13.265625 -20.65625 L 13.265625 -5.9375 Z M 20.796875 -5.9375 "/></g></g></g><g fill="#000000" fill-opacity="1"><g transform="translate(110.346476, 52.016833)"><g><path d="M 3.890625 -23.828125 C 3.890625 -28.191406 4.988281 -32.242188 7.1875 -35.984375 C 9.394531 -39.722656 12.359375 -42.703125 16.078125 -44.921875 C 19.796875 -47.140625 23.851562 -48.25 28.25 -48.25 C 32.613281 -48.25 36.664062 -47.140625 40.40625 -44.921875 C 44.144531 -42.703125 47.125 -39.722656 49.34375 -35.984375 C 51.570312 -32.242188 52.6875 -28.191406 52.6875 -23.828125 C 52.6875 -19.429688 51.582031 -15.359375 49.375 -11.609375 C 47.175781 -7.867188 44.195312 -4.910156 40.4375 -2.734375 C 36.675781 -0.554688 32.613281 0.53125 28.25 0.53125 C 23.851562 0.53125 19.785156 -0.546875 16.046875 -2.703125 C 12.304688 -4.859375 9.34375 -7.796875 7.15625 -11.515625 C 4.976562 -15.234375 3.890625 -19.335938 3.890625 -23.828125 Z M 10.5 -23.765625 C 10.5 -20.503906 11.289062 -17.488281 12.875 -14.71875 C 14.457031 -11.945312 16.625 -9.742188 19.375 -8.109375 C 22.125 -6.484375 25.128906 -5.671875 28.390625 -5.671875 C 31.640625 -5.671875 34.617188 -6.472656 37.328125 -8.078125 C 40.035156 -9.691406 42.171875 -11.894531 43.734375 -14.6875 C 45.296875 -17.476562 46.078125 -20.523438 46.078125 -23.828125 C 46.078125 -27.128906 45.285156 -30.1875 43.703125 -33 C 42.117188 -35.820312 39.960938 -38.046875 37.234375 -39.671875 C 34.503906 -41.304688 31.507812 -42.125 28.25 -42.125 C 25 -42.125 22.007812 -41.296875 19.28125 -39.640625 C 16.550781 -37.992188 14.40625 -35.757812 12.84375 -32.9375 C 11.28125 -30.125 10.5 -27.066406 10.5 -23.765625 Z M 10.5 -23.765625 "/></g></g></g><g fill="#000000" fill-opacity="1"><g transform="translate(177.980094, 52.016833)"><g><path d="M 44.296875 -4.09375 C 42.847656 -2.945312 40.570312 -1.890625 37.46875 -0.921875 C 34.363281 0.046875 31.488281 0.53125 28.84375 0.53125 C 23.875 0.53125 19.492188 -0.488281 15.703125 -2.53125 C 11.921875 -4.582031 9.003906 -7.390625 6.953125 -10.953125 C 4.910156 -14.523438 3.890625 -18.53125 3.890625 -22.96875 C 3.890625 -28.164062 4.988281 -32.664062 7.1875 -36.46875 C 9.394531 -40.28125 12.367188 -43.195312 16.109375 -45.21875 C 19.847656 -47.238281 23.941406 -48.25 28.390625 -48.25 C 31.066406 -48.25 33.59375 -47.929688 35.96875 -47.296875 C 38.351562 -46.660156 40.488281 -45.816406 42.375 -44.765625 L 40.265625 -38.890625 C 38.859375 -39.679688 37.085938 -40.375 34.953125 -40.96875 C 32.816406 -41.5625 30.890625 -41.859375 29.171875 -41.859375 C 25.484375 -41.859375 22.21875 -41.109375 19.375 -39.609375 C 16.539062 -38.109375 14.351562 -35.972656 12.8125 -33.203125 C 11.269531 -30.429688 10.5 -27.195312 10.5 -23.5 C 10.5 -20.070312 11.269531 -17.015625 12.8125 -14.328125 C 14.351562 -11.640625 16.53125 -9.554688 19.34375 -8.078125 C 22.15625 -6.609375 25.367188 -5.875 28.984375 -5.875 C 30.648438 -5.875 32.273438 -6.035156 33.859375 -6.359375 C 35.453125 -6.691406 36.773438 -7.171875 37.828125 -7.796875 L 37.828125 -17.234375 L 28.328125 -17.234375 L 28.328125 -23.375 L 44.296875 -23.375 Z M 44.296875 -4.09375 "/></g></g></g><g fill="#000000" fill-opacity="1"><g transform="translate(238.686411, 52.016833)"><g><path d="M 31.890625 -12.546875 L 13.53125 -12.546875 L 8.453125 0 L 2.109375 0 L 22.96875 -49.703125 L 23.375 -49.703125 L 44.234375 0 L 36.84375 0 Z M 29.703125 -18.09375 L 22.90625 -35.515625 L 15.84375 -18.09375 Z M 29.703125 -18.09375 "/></g></g></g><g fill="#000000" fill-opacity="1"><g transform="translate(296.028061, 52.016833)"><g><path d="M 6.859375 -47.734375 L 19.9375 -47.734375 C 25.875 -47.734375 30.789062 -46.554688 34.6875 -44.203125 C 38.582031 -41.847656 41.421875 -38.8125 43.203125 -35.09375 C 44.984375 -31.375 45.875 -27.441406 45.875 -23.296875 C 45.875 -18.679688 44.796875 -14.601562 42.640625 -11.0625 C 40.484375 -7.519531 37.597656 -4.789062 33.984375 -2.875 C 30.378906 -0.957031 26.46875 0 22.25 0 L 6.859375 0 Z M 21 -6.203125 C 24.519531 -6.203125 27.664062 -6.894531 30.4375 -8.28125 C 33.207031 -9.664062 35.375 -11.675781 36.9375 -14.3125 C 38.5 -16.957031 39.28125 -20.109375 39.28125 -23.765625 C 39.28125 -27.503906 38.460938 -30.71875 36.828125 -33.40625 C 35.203125 -36.09375 33.035156 -38.128906 30.328125 -39.515625 C 27.628906 -40.898438 24.71875 -41.59375 21.59375 -41.59375 L 13.265625 -41.59375 L 13.265625 -6.203125 Z M 21 -6.203125 "/></g></g></g><g fill="#000000" fill-opacity="1"><g transform="translate(356.86634, 52.016833)"><g><path d="M 31.890625 -12.546875 L 13.53125 -12.546875 L 8.453125 0 L 2.109375 0 L 22.96875 -49.703125 L 23.375 -49.703125 L 44.234375 0 L 36.84375 0 Z M 29.703125 -18.09375 L 22.90625 -35.515625 L 15.84375 -18.09375 Z M 29.703125 -18.09375 "/></g></g></g></g></g><g transform="matrix(1, 0, 0, 1, 160, 334)" clip-path="url(#agvCutoutBand)"><g clip-path="url(#a84a026910)"><g fill="#000000" fill-opacity="1"><g transform="translate(10.730881, 498.910246)"><g><path d="M 371.484375 -5.1875 L 375.625 -5.1875 L 375.625 0 L 258.890625 0 L 258.890625 -5.1875 L 263.5625 -5.1875 C 270.820312 -5.1875 276.269531 -7.519531 279.90625 -12.1875 C 283.539062 -16.863281 285.359375 -21.273438 285.359375 -25.421875 C 285.359375 -29.578125 284.664062 -33.726562 283.28125 -37.875 L 250.078125 -126.078125 L 109.984375 -126.078125 L 75.234375 -37.359375 C 73.847656 -33.203125 73.15625 -29.132812 73.15625 -25.15625 C 73.15625 -21.1875 74.96875 -16.863281 78.59375 -12.1875 C 82.226562 -7.519531 87.675781 -5.1875 94.9375 -5.1875 L 99.609375 -5.1875 L 99.609375 0 L -4.671875 0 L -4.671875 -5.1875 L 0 -5.1875 C 8.644531 -5.1875 17.117188 -7.953125 25.421875 -13.484375 C 33.722656 -19.023438 40.46875 -27.15625 45.65625 -37.875 L 162.90625 -317 C 175.707031 -345.019531 182.109375 -362.832031 182.109375 -370.4375 L 186.78125 -370.4375 L 325.828125 -37.875 C 330.660156 -27.15625 337.226562 -19.023438 345.53125 -13.484375 C 353.832031 -7.953125 362.484375 -5.1875 371.484375 -5.1875 Z M 116.21875 -141.640625 L 243.84375 -141.640625 L 181.59375 -308.1875 Z M 116.21875 -141.640625 "/></g></g></g><g fill="#000000" fill-opacity="1"><g transform="translate(383.759824, 498.910246)"><g><path d="M 217.390625 7.265625 C 162.046875 6.921875 117.164062 -10.539062 82.75 -45.125 C 48.332031 -79.71875 31.125 -125.203125 31.125 -181.578125 C 31.125 -237.960938 48.332031 -283.535156 82.75 -318.296875 C 117.164062 -353.054688 162.046875 -370.4375 217.390625 -370.4375 C 265.117188 -370.4375 307.144531 -358.675781 343.46875 -335.15625 L 353.84375 -262.015625 L 349.171875 -262.015625 C 341.554688 -291.753906 326.25 -314.664062 303.25 -330.75 C 280.25 -346.832031 251.628906 -354.875 217.390625 -354.875 C 173.460938 -354.875 137.921875 -338.960938 110.765625 -307.140625 C 83.617188 -275.328125 70.046875 -233.476562 70.046875 -181.59375 C 70.046875 -129.707031 83.617188 -87.9375 110.765625 -56.28125 C 137.921875 -24.632812 173.460938 -8.640625 217.390625 -8.296875 C 239.867188 -8.296875 261.222656 -12.273438 281.453125 -20.234375 C 301.691406 -28.191406 319.421875 -39.257812 334.640625 -53.4375 L 334.640625 -145.265625 C 334.640625 -152.878906 332.304688 -158.675781 327.640625 -162.65625 C 322.972656 -166.632812 316.488281 -168.625 308.1875 -168.625 L 299.875 -168.625 L 299.875 -173.8125 L 401.578125 -173.8125 L 401.578125 -168.625 L 393.796875 -168.625 C 385.140625 -168.625 378.5625 -166.632812 374.0625 -162.65625 C 369.570312 -158.675781 367.5 -152.878906 367.84375 -145.265625 L 367.84375 -59.671875 C 358.851562 -47.910156 348.128906 -37.359375 335.671875 -28.015625 C 323.222656 -18.679688 306.535156 -10.46875 285.609375 -3.375 C 264.679688 3.71875 241.941406 7.265625 217.390625 7.265625 Z M 217.390625 7.265625 "/></g></g></g><g fill="#000000" fill-opacity="1"><g transform="translate(801.406953, 498.910246)"><g><path d="M 389.640625 -357.984375 L 384.96875 -357.984375 C 373.207031 -357.984375 362.484375 -353.316406 352.796875 -343.984375 C 347.265625 -339.140625 342.941406 -333.085938 339.828125 -325.828125 L 214.796875 -46.171875 C 201.992188 -18.160156 195.59375 -0.347656 195.59375 7.265625 L 190.921875 7.265625 L 45.140625 -325.3125 C 40.296875 -336.375 33.632812 -344.582031 25.15625 -349.9375 C 16.6875 -355.300781 8.128906 -357.984375 -0.515625 -357.984375 L -4.671875 -357.984375 L -4.671875 -363.1875 L 112.0625 -363.1875 L 112.0625 -357.984375 L 107.390625 -357.984375 C 97.015625 -357.984375 90.097656 -353.144531 86.640625 -343.46875 C 85.953125 -341.382812 85.609375 -338.957031 85.609375 -336.1875 C 85.609375 -333.425781 86.472656 -329.972656 88.203125 -325.828125 L 196.625 -53.953125 L 309.734375 -325.828125 C 311.117188 -329.972656 311.8125 -334.035156 311.8125 -338.015625 C 311.8125 -341.992188 309.992188 -346.316406 306.359375 -350.984375 C 302.734375 -355.648438 297.285156 -357.984375 290.015625 -357.984375 L 285.359375 -357.984375 L 285.359375 -363.1875 L 389.640625 -363.1875 Z M 389.640625 -357.984375 "/></g></g></g></g></g><g clip-path="url(#79c56e89e6)"><rect x="215.800781" y="613.050781" width="1194.199219" height="128.171875" fill="#eaedf1" fill-opacity="0"/></g><g transform="matrix(1, 0, 0, 1, 169, 621)"><g clip-path="url(#290298a1b1)"><g fill="#000000" fill-opacity="1"><g transform="translate(5.878975, 76.894684)"><g><path d="M 58.734375 -0.828125 L 59.390625 -0.828125 L 59.390625 0 L 40.9375 0 L 40.9375 -0.828125 L 41.671875 -0.828125 C 42.828125 -0.828125 43.691406 -1.191406 44.265625 -1.921875 C 44.835938 -2.660156 45.125 -3.359375 45.125 -4.015625 C 45.125 -4.671875 45.015625 -5.328125 44.796875 -5.984375 L 39.546875 -19.9375 L 17.390625 -19.9375 L 11.890625 -5.90625 C 11.671875 -5.25 11.5625 -4.601562 11.5625 -3.96875 C 11.5625 -3.34375 11.847656 -2.660156 12.421875 -1.921875 C 12.992188 -1.191406 13.859375 -0.828125 15.015625 -0.828125 L 15.75 -0.828125 L 15.75 0 L -0.75 0 L -0.75 -0.828125 L 0 -0.828125 C 1.363281 -0.828125 2.703125 -1.265625 4.015625 -2.140625 C 5.328125 -3.015625 6.394531 -4.296875 7.21875 -5.984375 L 25.765625 -50.125 C 27.785156 -54.5625 28.796875 -57.378906 28.796875 -58.578125 L 29.53125 -58.578125 L 51.515625 -5.984375 C 52.285156 -4.296875 53.328125 -3.015625 54.640625 -2.140625 C 55.953125 -1.265625 57.316406 -0.828125 58.734375 -0.828125 Z M 18.375 -22.40625 L 38.5625 -22.40625 L 28.71875 -48.734375 Z M 18.375 -22.40625 "/></g></g></g><g fill="#000000" fill-opacity="1"><g transform="translate(64.247788, 76.894684)"><g><path d="M 31.015625 1.15625 C 22.859375 1.09375 16.332031 -1.242188 11.4375 -5.859375 C 6.550781 -10.484375 4.109375 -16.75 4.109375 -24.65625 C 4.109375 -32.5625 6.550781 -38.820312 11.4375 -43.4375 C 16.332031 -48.0625 22.648438 -50.375 30.390625 -50.375 C 38.140625 -50.375 44.71875 -48.734375 50.125 -45.453125 L 51.9375 -33.796875 L 51.203125 -33.796875 C 50.046875 -38.617188 47.8125 -42.175781 44.5 -44.46875 C 41.195312 -46.769531 36.523438 -47.921875 30.484375 -47.921875 C 24.441406 -47.921875 19.519531 -45.828125 15.71875 -41.640625 C 11.914062 -37.453125 10.015625 -31.773438 10.015625 -24.609375 C 10.015625 -17.441406 11.925781 -11.765625 15.75 -7.578125 C 19.582031 -3.398438 24.875 -1.3125 31.625 -1.3125 C 38.382812 -1.3125 44.195312 -3.691406 49.0625 -8.453125 L 49.140625 -19.359375 C 49.203125 -20.347656 48.890625 -21.128906 48.203125 -21.703125 C 47.515625 -22.273438 46.570312 -22.5625 45.375 -22.5625 L 44.21875 -22.5625 L 44.21875 -23.390625 L 59.234375 -23.390625 L 59.234375 -22.5625 L 58.09375 -22.5625 C 55.625 -22.5625 54.390625 -21.46875 54.390625 -19.28125 L 54.390625 -9.4375 C 52.097656 -6.59375 48.941406 -4.113281 44.921875 -2 C 40.898438 0.101562 36.265625 1.15625 31.015625 1.15625 Z M 31.015625 1.15625 "/></g></g></g><g fill="#000000" fill-opacity="1"><g transform="translate(125.075978, 76.894684)"><g><path d="M 54.5625 -48.40625 L 53.328125 -48.40625 C 51.847656 -48.40625 50.726562 -47.832031 49.96875 -46.6875 C 49.632812 -46.195312 49.441406 -45.625 49.390625 -44.96875 L 49.390625 -17.3125 C 49.390625 -11.625 47.570312 -7.125 43.9375 -3.8125 C 40.300781 -0.5 35.304688 1.15625 28.953125 1.15625 C 22.609375 1.15625 17.601562 -0.484375 13.9375 -3.765625 C 10.28125 -7.054688 8.453125 -11.546875 8.453125 -17.234375 L 8.453125 -44.875 C 8.453125 -45.863281 8.066406 -46.695312 7.296875 -47.375 C 6.535156 -48.0625 5.609375 -48.40625 4.515625 -48.40625 L 3.28125 -48.40625 L 3.28125 -49.234375 L 18.875 -49.234375 L 18.875 -48.40625 L 17.640625 -48.40625 C 16.546875 -48.40625 15.613281 -48.0625 14.84375 -47.375 C 14.082031 -46.695312 13.703125 -45.863281 13.703125 -44.875 L 13.703125 -18.21875 C 13.703125 -12.90625 15.054688 -8.71875 17.765625 -5.65625 C 20.472656 -2.59375 24.300781 -1.0625 29.25 -1.0625 C 34.195312 -1.0625 38.160156 -2.507812 41.140625 -5.40625 C 44.128906 -8.3125 45.625 -12.28125 45.625 -17.3125 L 45.625 -44.875 C 45.5625 -45.914062 45.160156 -46.765625 44.421875 -47.421875 C 43.691406 -48.078125 42.78125 -48.40625 41.6875 -48.40625 L 40.453125 -48.40625 L 40.453125 -49.234375 L 54.5625 -49.234375 Z M 54.5625 -48.40625 "/></g></g></g><g fill="#000000" fill-opacity="1"><g transform="translate(182.461071, 76.894684)"><g><path d="M 4.765625 -2.703125 C 4.597656 -3.359375 4.515625 -4.695312 4.515625 -6.71875 C 4.515625 -8.75 4.867188 -10.800781 5.578125 -12.875 L 6.5625 -12.875 C 6.507812 -12.382812 6.484375 -11.894531 6.484375 -11.40625 C 6.484375 -8.445312 7.453125 -6.023438 9.390625 -4.140625 C 11.335938 -2.253906 14.03125 -1.3125 17.46875 -1.3125 C 21.082031 -1.3125 23.898438 -2.144531 25.921875 -3.8125 C 27.953125 -5.476562 28.96875 -7.640625 28.96875 -10.296875 C 28.96875 -12.953125 27.984375 -15.15625 26.015625 -16.90625 L 9.59375 -29.53125 C 6.96875 -31.78125 5.65625 -34.789062 5.65625 -38.5625 C 5.65625 -40.695312 6.242188 -42.664062 7.421875 -44.46875 C 8.597656 -46.269531 10.238281 -47.703125 12.34375 -48.765625 C 14.445312 -49.835938 16.921875 -50.375 19.765625 -50.375 C 22.617188 -50.375 25.140625 -50.128906 27.328125 -49.640625 L 30.03125 -49.640625 L 30.1875 -40.6875 L 29.296875 -40.6875 C 29.296875 -42.988281 28.5 -44.769531 26.90625 -46.03125 C 25.320312 -47.289062 23.050781 -47.921875 20.09375 -47.921875 C 17.144531 -47.921875 14.710938 -47.164062 12.796875 -45.65625 C 10.878906 -44.15625 9.921875 -42.210938 9.921875 -39.828125 C 9.921875 -37.453125 10.988281 -35.390625 13.125 -33.640625 L 29.703125 -20.84375 C 32.210938 -18.757812 33.46875 -15.859375 33.46875 -12.140625 C 33.46875 -8.421875 32.0625 -5.273438 29.25 -2.703125 C 26.4375 -0.128906 23.003906 1.15625 18.953125 1.15625 C 16.273438 1.15625 13.59375 0.820312 10.90625 0.15625 C 8.226562 -0.5 6.179688 -1.453125 4.765625 -2.703125 Z M 4.765625 -2.703125 "/></g></g></g><g fill="#000000" fill-opacity="1"><g transform="translate(220.335208, 76.894684)"><g><path d="M 26.421875 -46.84375 L 26.421875 -5.171875 C 26.472656 -3.472656 27.289062 -2.210938 28.875 -1.390625 C 29.59375 -1.015625 30.390625 -0.828125 31.265625 -0.828125 L 32.15625 -0.828125 L 32.15625 0 L 15.265625 0 L 15.265625 -0.828125 L 16.25 -0.828125 C 17.5625 -0.828125 18.679688 -1.265625 19.609375 -2.140625 C 20.535156 -3.015625 21.03125 -4.050781 21.09375 -5.25 L 21.09375 -46.84375 L 6.234375 -46.84375 C 4.972656 -46.84375 3.972656 -46.429688 3.234375 -45.609375 C 2.503906 -44.796875 2.140625 -43.816406 2.140625 -42.671875 L 2.140625 -41.359375 L 1.234375 -41.359375 L 1.234375 -50.625 C 2.328125 -50.1875 3.867188 -49.859375 5.859375 -49.640625 C 7.859375 -49.421875 9.351562 -49.3125 10.34375 -49.3125 L 37.078125 -49.3125 C 41.023438 -49.3125 44.09375 -49.75 46.28125 -50.625 L 46.28125 -41.359375 L 45.375 -41.359375 L 45.375 -42.671875 C 45.375 -43.816406 44.988281 -44.796875 44.21875 -45.609375 C 43.457031 -46.429688 42.472656 -46.84375 41.265625 -46.84375 Z M 26.421875 -46.84375 "/></g></g></g><g fill="#000000" fill-opacity="1"><g transform="translate(267.718893, 76.894684)"><g><path d="M 5.65625 -0.828125 C 7.132812 -0.828125 8.421875 -1.265625 9.515625 -2.140625 C 10.609375 -3.015625 11.15625 -4.050781 11.15625 -5.25 L 11.15625 -43.984375 C 11.15625 -45.179688 10.609375 -46.21875 9.515625 -47.09375 C 8.421875 -47.96875 7.109375 -48.40625 5.578125 -48.40625 L 4.515625 -48.40625 L 4.515625 -49.234375 L 23.0625 -49.234375 L 23.0625 -48.40625 L 21.984375 -48.40625 C 20.503906 -48.40625 19.234375 -47.992188 18.171875 -47.171875 C 17.109375 -46.359375 16.519531 -45.347656 16.40625 -44.140625 L 16.40625 -5.171875 C 16.457031 -3.960938 17.03125 -2.9375 18.125 -2.09375 C 19.21875 -1.25 20.503906 -0.828125 21.984375 -0.828125 L 23.0625 -0.828125 L 23.140625 0 L 4.515625 0 L 4.515625 -0.828125 Z M 5.65625 -0.828125 "/></g></g></g><g fill="#000000" fill-opacity="1"><g transform="translate(295.26374, 76.894684)"><g><path d="M 59.640625 -48.40625 C 58.441406 -48.40625 57.40625 -48.007812 56.53125 -47.21875 C 55.65625 -46.425781 55.191406 -45.457031 55.140625 -44.3125 L 55.140625 -9.359375 C 55.140625 -6.179688 55.328125 -3.171875 55.703125 -0.328125 L 55.875 1.15625 L 55.140625 1.15625 L 12.46875 -39.296875 L 12.46875 -5.09375 C 12.46875 -3.882812 12.90625 -2.867188 13.78125 -2.046875 C 14.65625 -1.234375 15.722656 -0.828125 16.984375 -0.828125 L 18.375 -0.828125 L 18.375 0 L 2.875 0 L 2.875 -0.828125 L 4.265625 -0.828125 C 5.523438 -0.828125 6.59375 -1.234375 7.46875 -2.046875 C 8.34375 -2.867188 8.78125 -3.882812 8.78125 -5.09375 L 8.78125 -40.203125 C 8.78125 -43.535156 8.585938 -46.515625 8.203125 -49.140625 L 8.046875 -50.453125 L 8.9375 -50.375 L 51.53125 -10.25 L 51.53125 -44.3125 C 51.414062 -45.457031 50.921875 -46.425781 50.046875 -47.21875 C 49.171875 -48.007812 48.132812 -48.40625 46.9375 -48.40625 L 45.53125 -48.40625 L 45.53125 -49.234375 L 61.046875 -49.234375 L 61.046875 -48.40625 Z M 59.640625 -48.40625 "/></g></g></g><g fill="#000000" fill-opacity="1"><g transform="translate(359.125078, 76.894684)"><g><path d="M 54.15625 -0.828125 L 54.8125 -0.828125 L 54.8125 0 L 37.984375 0 L 37.984375 -0.828125 L 38.640625 -0.828125 C 39.679688 -0.828125 40.472656 -1.179688 41.015625 -1.890625 C 41.566406 -2.597656 41.84375 -3.265625 41.84375 -3.890625 C 41.84375 -4.523438 41.734375 -5.144531 41.515625 -5.75 L 37 -16.65625 L 16.25 -16.65625 L 11.734375 -5.984375 C 11.460938 -5.273438 11.328125 -4.601562 11.328125 -3.96875 C 11.328125 -3.34375 11.597656 -2.660156 12.140625 -1.921875 C 12.691406 -1.191406 13.515625 -0.828125 14.609375 -0.828125 L 15.265625 -0.828125 L 15.265625 0 L -0.40625 0 L -0.40625 -0.828125 L 0.25 -0.828125 C 1.394531 -0.828125 2.554688 -1.222656 3.734375 -2.015625 C 4.910156 -2.804688 5.878906 -3.992188 6.640625 -5.578125 C 18.617188 -31.179688 24.859375 -44.582031 25.359375 -45.78125 C 26.285156 -48.082031 26.773438 -49.613281 26.828125 -50.375 L 27.5625 -50.375 L 47.828125 -5.578125 C 49.421875 -2.410156 51.53125 -0.828125 54.15625 -0.828125 Z M 17.3125 -19.109375 L 36.015625 -19.109375 L 26.828125 -41.59375 Z M 17.3125 -19.109375 "/></g></g></g><g fill="#000000" fill-opacity="1"><g transform="translate(413.476946, 76.894684)"><g/></g></g><g fill="#000000" fill-opacity="1"><g transform="translate(433.971622, 76.894684)"><g><path d="M 31.015625 1.15625 C 22.859375 1.09375 16.332031 -1.242188 11.4375 -5.859375 C 6.550781 -10.484375 4.109375 -16.75 4.109375 -24.65625 C 4.109375 -32.5625 6.550781 -38.820312 11.4375 -43.4375 C 16.332031 -48.0625 22.648438 -50.375 30.390625 -50.375 C 38.140625 -50.375 44.71875 -48.734375 50.125 -45.453125 L 51.9375 -33.796875 L 51.203125 -33.796875 C 50.046875 -38.617188 47.8125 -42.175781 44.5 -44.46875 C 41.195312 -46.769531 36.523438 -47.921875 30.484375 -47.921875 C 24.441406 -47.921875 19.519531 -45.828125 15.71875 -41.640625 C 11.914062 -37.453125 10.015625 -31.773438 10.015625 -24.609375 C 10.015625 -17.441406 11.925781 -11.765625 15.75 -7.578125 C 19.582031 -3.398438 24.875 -1.3125 31.625 -1.3125 C 38.382812 -1.3125 44.195312 -3.691406 49.0625 -8.453125 L 49.140625 -19.359375 C 49.203125 -20.347656 48.890625 -21.128906 48.203125 -21.703125 C 47.515625 -22.273438 46.570312 -22.5625 45.375 -22.5625 L 44.21875 -22.5625 L 44.21875 -23.390625 L 59.234375 -23.390625 L 59.234375 -22.5625 L 58.09375 -22.5625 C 55.625 -22.5625 54.390625 -21.46875 54.390625 -19.28125 L 54.390625 -9.4375 C 52.097656 -6.59375 48.941406 -4.113281 44.921875 -2 C 40.898438 0.101562 36.265625 1.15625 31.015625 1.15625 Z M 31.015625 1.15625 "/></g></g></g><g fill="#000000" fill-opacity="1"><g transform="translate(494.799811, 76.894684)"><g><path d="M 17.875 -47.125 C 22.09375 -49.289062 26.726562 -50.375 31.78125 -50.375 C 36.84375 -50.375 41.476562 -49.289062 45.6875 -47.125 C 49.90625 -44.96875 53.257812 -41.921875 55.75 -37.984375 C 58.238281 -34.046875 59.484375 -29.585938 59.484375 -24.609375 C 59.484375 -19.628906 58.238281 -15.171875 55.75 -11.234375 C 53.257812 -7.296875 49.90625 -4.242188 45.6875 -2.078125 C 41.476562 0.078125 37.160156 1.15625 32.734375 1.15625 C 28.304688 1.15625 24.394531 0.523438 21 -0.734375 C 17.613281 -1.992188 14.675781 -3.742188 12.1875 -5.984375 C 9.695312 -8.234375 7.726562 -10.96875 6.28125 -14.1875 C 4.832031 -17.414062 4.109375 -21.203125 4.109375 -25.546875 C 4.109375 -29.898438 5.347656 -34.046875 7.828125 -37.984375 C 10.316406 -41.921875 13.664062 -44.96875 17.875 -47.125 Z M 16.359375 -7.828125 C 20.492188 -3.484375 25.625 -1.3125 31.75 -1.3125 C 37.875 -1.3125 43.015625 -3.484375 47.171875 -7.828125 C 51.328125 -12.179688 53.40625 -17.773438 53.40625 -24.609375 C 53.40625 -31.453125 51.328125 -37.046875 47.171875 -41.390625 C 43.015625 -45.742188 37.875 -47.921875 31.75 -47.921875 C 25.625 -47.921875 20.492188 -45.742188 16.359375 -41.390625 C 12.234375 -37.046875 10.171875 -31.453125 10.171875 -24.609375 C 10.171875 -17.773438 12.234375 -12.179688 16.359375 -7.828125 Z M 16.359375 -7.828125 "/></g></g></g><g fill="#000000" fill-opacity="1"><g transform="translate(558.251279, 76.894684)"><g><path d="M 59.640625 -48.40625 C 58.441406 -48.40625 57.40625 -48.007812 56.53125 -47.21875 C 55.65625 -46.425781 55.191406 -45.457031 55.140625 -44.3125 L 55.140625 -9.359375 C 55.140625 -6.179688 55.328125 -3.171875 55.703125 -0.328125 L 55.875 1.15625 L 55.140625 1.15625 L 12.46875 -39.296875 L 12.46875 -5.09375 C 12.46875 -3.882812 12.90625 -2.867188 13.78125 -2.046875 C 14.65625 -1.234375 15.722656 -0.828125 16.984375 -0.828125 L 18.375 -0.828125 L 18.375 0 L 2.875 0 L 2.875 -0.828125 L 4.265625 -0.828125 C 5.523438 -0.828125 6.59375 -1.234375 7.46875 -2.046875 C 8.34375 -2.867188 8.78125 -3.882812 8.78125 -5.09375 L 8.78125 -40.203125 C 8.78125 -43.535156 8.585938 -46.515625 8.203125 -49.140625 L 8.046875 -50.453125 L 8.9375 -50.375 L 51.53125 -10.25 L 51.53125 -44.3125 C 51.414062 -45.457031 50.921875 -46.425781 50.046875 -47.21875 C 49.171875 -48.007812 48.132812 -48.40625 46.9375 -48.40625 L 45.53125 -48.40625 L 45.53125 -49.234375 L 61.046875 -49.234375 L 61.046875 -48.40625 Z M 59.640625 -48.40625 "/></g></g></g><g fill="#000000" fill-opacity="1"><g transform="translate(622.112617, 76.894684)"><g><path d="M 6.234375 -42.671875 L 6.234375 -41.359375 L 5.328125 -41.359375 L 5.328125 -50.625 C 6.046875 -50.289062 7.347656 -50 9.234375 -49.75 C 11.117188 -49.507812 12.878906 -49.363281 14.515625 -49.3125 L 33.390625 -49.3125 C 35.085938 -49.3125 36.921875 -49.421875 38.890625 -49.640625 C 40.859375 -49.859375 42.117188 -50.101562 42.671875 -50.375 L 42.671875 -49.640625 L 11.484375 -2.46875 L 33.96875 -2.46875 C 36.476562 -2.519531 38.609375 -2.96875 40.359375 -3.8125 C 42.117188 -4.664062 43.445312 -5.691406 44.34375 -6.890625 C 45.25 -8.097656 46.140625 -9.710938 47.015625 -11.734375 L 47.828125 -11.734375 L 43.40625 0 L 4.109375 0 L 4.109375 -0.734375 L 34.703125 -46.84375 L 10.25 -46.84375 C 8.613281 -46.789062 7.441406 -46.082031 6.734375 -44.71875 C 6.398438 -44.0625 6.234375 -43.378906 6.234375 -42.671875 Z M 6.234375 -42.671875 "/></g></g></g><g fill="#000000" fill-opacity="1"><g transform="translate(671.955678, 76.894684)"><g><path d="M 54.15625 -0.828125 L 54.8125 -0.828125 L 54.8125 0 L 37.984375 0 L 37.984375 -0.828125 L 38.640625 -0.828125 C 39.679688 -0.828125 40.472656 -1.179688 41.015625 -1.890625 C 41.566406 -2.597656 41.84375 -3.265625 41.84375 -3.890625 C 41.84375 -4.523438 41.734375 -5.144531 41.515625 -5.75 L 37 -16.65625 L 16.25 -16.65625 L 11.734375 -5.984375 C 11.460938 -5.273438 11.328125 -4.601562 11.328125 -3.96875 C 11.328125 -3.34375 11.597656 -2.660156 12.140625 -1.921875 C 12.691406 -1.191406 13.515625 -0.828125 14.609375 -0.828125 L 15.265625 -0.828125 L 15.265625 0 L -0.40625 0 L -0.40625 -0.828125 L 0.25 -0.828125 C 1.394531 -0.828125 2.554688 -1.222656 3.734375 -2.015625 C 4.910156 -2.804688 5.878906 -3.992188 6.640625 -5.578125 C 18.617188 -31.179688 24.859375 -44.582031 25.359375 -45.78125 C 26.285156 -48.082031 26.773438 -49.613281 26.828125 -50.375 L 27.5625 -50.375 L 47.828125 -5.578125 C 49.421875 -2.410156 51.53125 -0.828125 54.15625 -0.828125 Z M 17.3125 -19.109375 L 36.015625 -19.109375 L 26.828125 -41.59375 Z M 17.3125 -19.109375 "/></g></g></g><g fill="#000000" fill-opacity="1"><g transform="translate(726.307546, 76.894684)"><g><path d="M 5.65625 -0.828125 C 6.96875 -0.828125 8.078125 -1.25 8.984375 -2.09375 C 9.890625 -2.9375 10.367188 -3.960938 10.421875 -5.171875 L 10.421875 -43.984375 C 10.367188 -45.179688 9.863281 -46.21875 8.90625 -47.09375 C 7.945312 -47.96875 6.8125 -48.40625 5.5 -48.40625 L 4.515625 -48.40625 L 4.515625 -49.234375 L 21.5 -49.234375 L 21.5 -48.40625 L 20.515625 -48.40625 C 19.203125 -48.40625 18.066406 -47.96875 17.109375 -47.09375 C 16.148438 -46.21875 15.671875 -45.179688 15.671875 -43.984375 L 15.671875 -2.546875 L 28.46875 -2.546875 C 30.988281 -2.546875 33.125 -2.984375 34.875 -3.859375 C 36.625 -4.734375 37.945312 -5.769531 38.84375 -6.96875 C 39.75 -8.175781 40.640625 -9.765625 41.515625 -11.734375 L 42.34375 -11.734375 L 37.828125 0 L 4.515625 0 L 4.515625 -0.828125 Z M 5.65625 -0.828125 "/></g></g></g><g fill="#000000" fill-opacity="1"><g transform="translate(770.248134, 76.894684)"><g><path d="M 5.65625 -0.828125 C 6.96875 -0.828125 8.078125 -1.25 8.984375 -2.09375 C 9.890625 -2.9375 10.367188 -3.960938 10.421875 -5.171875 L 10.421875 -44.140625 C 10.421875 -45.347656 9.953125 -46.359375 9.015625 -47.171875 C 8.085938 -47.992188 6.96875 -48.40625 5.65625 -48.40625 L 4.515625 -48.40625 L 4.515625 -49.234375 L 28.46875 -49.234375 C 30.707031 -49.234375 32.675781 -49.394531 34.375 -49.71875 C 36.070312 -50.050781 37.164062 -50.328125 37.65625 -50.546875 L 37.65625 -41.1875 L 36.75 -41.265625 L 36.75 -42.5 C 36.75 -43.644531 36.363281 -44.628906 35.59375 -45.453125 C 34.832031 -46.273438 33.851562 -46.6875 32.65625 -46.6875 L 15.59375 -46.6875 L 15.59375 -25.84375 L 29.625 -25.84375 C 30.71875 -25.84375 31.550781 -26.171875 32.125 -26.828125 C 32.695312 -27.484375 32.984375 -28.304688 32.984375 -29.296875 L 32.984375 -30.359375 L 33.890625 -30.359375 L 33.890625 -18.875 L 32.984375 -18.875 L 32.984375 -19.9375 C 32.984375 -21.46875 32.410156 -22.507812 31.265625 -23.0625 C 30.828125 -23.21875 30.359375 -23.328125 29.859375 -23.390625 L 15.59375 -23.390625 L 15.59375 -2.546875 L 28.46875 -2.546875 C 30.988281 -2.546875 33.109375 -2.984375 34.828125 -3.859375 C 36.546875 -4.734375 37.859375 -5.769531 38.765625 -6.96875 C 39.671875 -8.175781 40.585938 -9.765625 41.515625 -11.734375 L 42.34375 -11.734375 L 37.828125 0 L 4.515625 0 L 4.515625 -0.828125 Z M 5.65625 -0.828125 "/></g></g></g><g fill="#000000" fill-opacity="1"><g transform="translate(815.008463, 76.894684)"><g><path d="M 6.234375 -42.671875 L 6.234375 -41.359375 L 5.328125 -41.359375 L 5.328125 -50.625 C 6.046875 -50.289062 7.347656 -50 9.234375 -49.75 C 11.117188 -49.507812 12.878906 -49.363281 14.515625 -49.3125 L 33.390625 -49.3125 C 35.085938 -49.3125 36.921875 -49.421875 38.890625 -49.640625 C 40.859375 -49.859375 42.117188 -50.101562 42.671875 -50.375 L 42.671875 -49.640625 L 11.484375 -2.46875 L 33.96875 -2.46875 C 36.476562 -2.519531 38.609375 -2.96875 40.359375 -3.8125 C 42.117188 -4.664062 43.445312 -5.691406 44.34375 -6.890625 C 45.25 -8.097656 46.140625 -9.710938 47.015625 -11.734375 L 47.828125 -11.734375 L 43.40625 0 L 4.109375 0 L 4.109375 -0.734375 L 34.703125 -46.84375 L 10.25 -46.84375 C 8.613281 -46.789062 7.441406 -46.082031 6.734375 -44.71875 C 6.398438 -44.0625 6.234375 -43.378906 6.234375 -42.671875 Z M 6.234375 -42.671875 "/></g></g></g><g fill="#000000" fill-opacity="1"><g transform="translate(864.851525, 76.894684)"><g/></g></g><g fill="#000000" fill-opacity="1"><g transform="translate(885.346201, 76.894684)"><g><path d="M 54.890625 -48.40625 L 54.234375 -48.40625 C 53.023438 -48.40625 51.847656 -48.007812 50.703125 -47.21875 C 49.554688 -46.425781 48.570312 -45.238281 47.75 -43.65625 C 35.820312 -18.050781 29.613281 -4.648438 29.125 -3.453125 C 28.195312 -1.148438 27.703125 0.382812 27.640625 1.15625 L 26.90625 1.15625 L 6.640625 -43.5625 C 5.054688 -46.789062 2.953125 -48.40625 0.328125 -48.40625 L -0.328125 -48.40625 L -0.328125 -49.234375 L 16.484375 -49.234375 L 16.484375 -48.40625 L 15.828125 -48.40625 C 14.785156 -48.40625 14.003906 -48.035156 13.484375 -47.296875 C 12.972656 -46.554688 12.71875 -45.882812 12.71875 -45.28125 C 12.71875 -44.6875 12.796875 -44.0625 12.953125 -43.40625 L 27.640625 -7.625 L 42.75 -43.234375 C 43.019531 -43.953125 43.15625 -44.625 43.15625 -45.25 C 43.15625 -45.875 42.878906 -46.554688 42.328125 -47.296875 C 41.785156 -48.035156 40.96875 -48.40625 39.875 -48.40625 L 39.296875 -48.40625 L 39.296875 -49.234375 L 54.890625 -49.234375 Z M 54.890625 -48.40625 "/></g></g></g><g fill="#000000" fill-opacity="1"><g transform="translate(939.698068, 76.894684)"><g><path d="M 5.65625 -0.828125 C 7.132812 -0.828125 8.421875 -1.265625 9.515625 -2.140625 C 10.609375 -3.015625 11.15625 -4.050781 11.15625 -5.25 L 11.15625 -43.984375 C 11.15625 -45.179688 10.609375 -46.21875 9.515625 -47.09375 C 8.421875 -47.96875 7.109375 -48.40625 5.578125 -48.40625 L 4.515625 -48.40625 L 4.515625 -49.234375 L 23.0625 -49.234375 L 23.0625 -48.40625 L 21.984375 -48.40625 C 20.503906 -48.40625 19.234375 -47.992188 18.171875 -47.171875 C 17.109375 -46.359375 16.519531 -45.347656 16.40625 -44.140625 L 16.40625 -5.171875 C 16.457031 -3.960938 17.03125 -2.9375 18.125 -2.09375 C 19.21875 -1.25 20.503906 -0.828125 21.984375 -0.828125 L 23.0625 -0.828125 L 23.140625 0 L 4.515625 0 L 4.515625 -0.828125 Z M 5.65625 -0.828125 "/></g></g></g><g fill="#000000" fill-opacity="1"><g transform="translate(967.242916, 76.894684)"><g><path d="M 31.171875 1.15625 C 22.804688 1.09375 16.203125 -1.234375 11.359375 -5.828125 C 6.523438 -10.421875 4.109375 -16.695312 4.109375 -24.65625 C 4.109375 -32.613281 6.523438 -38.890625 11.359375 -43.484375 C 16.203125 -48.078125 22.804688 -50.375 31.171875 -50.375 C 34.566406 -50.375 37.988281 -49.9375 41.4375 -49.0625 C 44.882812 -48.1875 47.863281 -46.984375 50.375 -45.453125 L 52.1875 -33.796875 L 51.4375 -33.796875 C 49.09375 -43.210938 42.3125 -47.921875 31.09375 -47.921875 C 24.582031 -47.921875 19.441406 -45.835938 15.671875 -41.671875 C 11.898438 -37.515625 10.015625 -31.828125 10.015625 -24.609375 C 10.015625 -19.910156 10.859375 -15.820312 12.546875 -12.34375 C 14.242188 -8.875 16.707031 -6.179688 19.9375 -4.265625 C 23.164062 -2.347656 26.910156 -1.390625 31.171875 -1.390625 C 35.441406 -1.390625 39.175781 -2.03125 42.375 -3.3125 C 45.570312 -4.601562 48.222656 -6.722656 50.328125 -9.671875 C 52.441406 -12.628906 53.632812 -16.296875 53.90625 -20.671875 L 54.640625 -20.671875 L 53.734375 -9.4375 C 51.609375 -6.15625 48.519531 -3.566406 44.46875 -1.671875 C 40.414062 0.210938 35.984375 1.15625 31.171875 1.15625 Z M 31.171875 1.15625 "/></g></g></g><g fill="#000000" fill-opacity="1"><g transform="translate(1025.037879, 76.894684)"><g><path d="M 54.15625 -0.828125 L 54.8125 -0.828125 L 54.8125 0 L 37.984375 0 L 37.984375 -0.828125 L 38.640625 -0.828125 C 39.679688 -0.828125 40.472656 -1.179688 41.015625 -1.890625 C 41.566406 -2.597656 41.84375 -3.265625 41.84375 -3.890625 C 41.84375 -4.523438 41.734375 -5.144531 41.515625 -5.75 L 37 -16.65625 L 16.25 -16.65625 L 11.734375 -5.984375 C 11.460938 -5.273438 11.328125 -4.601562 11.328125 -3.96875 C 11.328125 -3.34375 11.597656 -2.660156 12.140625 -1.921875 C 12.691406 -1.191406 13.515625 -0.828125 14.609375 -0.828125 L 15.265625 -0.828125 L 15.265625 0 L -0.40625 0 L -0.40625 -0.828125 L 0.25 -0.828125 C 1.394531 -0.828125 2.554688 -1.222656 3.734375 -2.015625 C 4.910156 -2.804688 5.878906 -3.992188 6.640625 -5.578125 C 18.617188 -31.179688 24.859375 -44.582031 25.359375 -45.78125 C 26.285156 -48.082031 26.773438 -49.613281 26.828125 -50.375 L 27.5625 -50.375 L 47.828125 -5.578125 C 49.421875 -2.410156 51.53125 -0.828125 54.15625 -0.828125 Z M 17.3125 -19.109375 L 36.015625 -19.109375 L 26.828125 -41.59375 Z M 17.3125 -19.109375 "/></g></g></g><g fill="#000000" fill-opacity="1"><g transform="translate(1079.389746, 76.894684)"><g><path d="M 19.859375 -46.6875 L 15.5 -46.6875 L 15.5 -5.25 C 15.5625 -3.550781 16.328125 -2.265625 17.796875 -1.390625 C 18.515625 -1.015625 19.3125 -0.828125 20.1875 -0.828125 L 21.25 -0.828125 L 21.328125 0 L 4.515625 0 L 4.515625 -0.828125 L 5.65625 -0.828125 C 6.914062 -0.828125 7.992188 -1.25 8.890625 -2.09375 C 9.796875 -2.9375 10.25 -3.960938 10.25 -5.171875 L 10.25 -44.140625 C 10.25 -45.347656 9.796875 -46.359375 8.890625 -47.171875 C 7.992188 -47.992188 6.914062 -48.40625 5.65625 -48.40625 L 4.515625 -48.40625 L 4.515625 -49.234375 L 25.109375 -49.234375 C 30.242188 -49.234375 34.300781 -48.054688 37.28125 -45.703125 C 40.269531 -43.347656 41.765625 -40.253906 41.765625 -36.421875 C 41.765625 -32.597656 40.5625 -29.398438 38.15625 -26.828125 C 35.75 -24.253906 32.6875 -22.78125 28.96875 -22.40625 C 30.71875 -21.632812 32.820312 -19.5 35.28125 -16 C 35.226562 -16 36.171875 -14.796875 38.109375 -12.390625 C 40.054688 -9.984375 41.613281 -8.109375 42.78125 -6.765625 C 43.957031 -5.429688 44.929688 -4.40625 45.703125 -3.6875 C 47.722656 -1.78125 50.046875 -0.828125 52.671875 -0.828125 L 52.671875 0 L 50.125 0 C 45.8125 0 42.421875 -0.847656 39.953125 -2.546875 C 38.097656 -3.804688 36.40625 -5.363281 34.875 -7.21875 C 34.539062 -7.65625 33.15625 -9.582031 30.71875 -13 C 28.289062 -16.414062 26.992188 -18.234375 26.828125 -18.453125 C 23.878906 -22.117188 21.117188 -23.953125 18.546875 -23.953125 L 18.546875 -24.78125 C 24.941406 -24.78125 28.796875 -25.109375 30.109375 -25.765625 C 31.910156 -26.691406 33.140625 -27.675781 33.796875 -28.71875 C 35.171875 -30.90625 35.859375 -33.3125 35.859375 -35.9375 C 35.859375 -39.269531 34.875 -41.835938 32.90625 -43.640625 C 30.9375 -45.453125 28.28125 -46.441406 24.9375 -46.609375 C 23.46875 -46.660156 21.773438 -46.6875 19.859375 -46.6875 Z M 19.859375 -46.6875 "/></g></g></g><g fill="#000000" fill-opacity="1"><g transform="translate(1130.790377, 76.894684)"><g><path d="M 5.65625 -0.828125 C 7.132812 -0.828125 8.421875 -1.265625 9.515625 -2.140625 C 10.609375 -3.015625 11.15625 -4.050781 11.15625 -5.25 L 11.15625 -43.984375 C 11.15625 -45.179688 10.609375 -46.21875 9.515625 -47.09375 C 8.421875 -47.96875 7.109375 -48.40625 5.578125 -48.40625 L 4.515625 -48.40625 L 4.515625 -49.234375 L 23.0625 -49.234375 L 23.0625 -48.40625 L 21.984375 -48.40625 C 20.503906 -48.40625 19.234375 -47.992188 18.171875 -47.171875 C 17.109375 -46.359375 16.519531 -45.347656 16.40625 -44.140625 L 16.40625 -5.171875 C 16.457031 -3.960938 17.03125 -2.9375 18.125 -2.09375 C 19.21875 -1.25 20.503906 -0.828125 21.984375 -0.828125 L 23.0625 -0.828125 L 23.140625 0 L 4.515625 0 L 4.515625 -0.828125 Z M 5.65625 -0.828125 "/></g></g></g><g fill="#000000" fill-opacity="1"><g transform="translate(1158.335225, 76.894684)"><g><path d="M 17.875 -47.125 C 22.09375 -49.289062 26.726562 -50.375 31.78125 -50.375 C 36.84375 -50.375 41.476562 -49.289062 45.6875 -47.125 C 49.90625 -44.96875 53.257812 -41.921875 55.75 -37.984375 C 58.238281 -34.046875 59.484375 -29.585938 59.484375 -24.609375 C 59.484375 -19.628906 58.238281 -15.171875 55.75 -11.234375 C 53.257812 -7.296875 49.90625 -4.242188 45.6875 -2.078125 C 41.476562 0.078125 37.160156 1.15625 32.734375 1.15625 C 28.304688 1.15625 24.394531 0.523438 21 -0.734375 C 17.613281 -1.992188 14.675781 -3.742188 12.1875 -5.984375 C 9.695312 -8.234375 7.726562 -10.96875 6.28125 -14.1875 C 4.832031 -17.414062 4.109375 -21.203125 4.109375 -25.546875 C 4.109375 -29.898438 5.347656 -34.046875 7.828125 -37.984375 C 10.316406 -41.921875 13.664062 -44.96875 17.875 -47.125 Z M 16.359375 -7.828125 C 20.492188 -3.484375 25.625 -1.3125 31.75 -1.3125 C 37.875 -1.3125 43.015625 -3.484375 47.171875 -7.828125 C 51.328125 -12.179688 53.40625 -17.773438 53.40625 -24.609375 C 53.40625 -31.453125 51.328125 -37.046875 47.171875 -41.390625 C 43.015625 -45.742188 37.875 -47.921875 31.75 -47.921875 C 25.625 -47.921875 20.492188 -45.742188 16.359375 -41.390625 C 12.234375 -37.046875 10.171875 -31.453125 10.171875 -24.609375 C 10.171875 -17.773438 12.234375 -12.179688 16.359375 -7.828125 Z M 16.359375 -7.828125 "/></g></g></g></g></g></svg>


